<?xml version="1.0" standalone="no"?>
<!DOCTYPE svg PUBLIC "-//W3C//DTD SVG 1.1//EN" "http://www.w3.org/Graphics/SVG/1.1/DTD/svg11.dtd">
<svg width="100%" height="100%" viewBox="0 0 4567 3250" version="1.1" xmlns="http://www.w3.org/2000/svg" xmlns:xlink="http://www.w3.org/1999/xlink" xml:space="preserve" style="fill-rule:evenodd;clip-rule:evenodd;stroke-linejoin:round;stroke-miterlimit:1.41421;">
    <g id="Layer 1" transform="matrix(4.16667,0,0,4.16667,0,0)">
        <g transform="matrix(1.39039,0,0,1.27069,277.169,-342.565)">
            <path d="M319.972,598.315C320.262,598.051 320.564,597.555 320.844,597.568C321.542,597.603 322.283,597.77 322.914,598.06C326.492,599.728 329.82,601.8 332.967,604.219C336.085,606.631 338.911,609.366 341.673,612.362C342.318,613.069 342.872,613.992 343.176,614.931C343.369,615.545 343.305,616.517 342.96,617.041C342.496,617.746 341.508,617.687 340.993,617.163C339.377,615.527 337.79,613.942 336.121,612.38C334.443,610.816 332.755,609.294 331.059,607.814C329.362,606.335 327.657,604.898 325.945,603.504C324.193,602.102 322.412,600.739 320.637,599.422C320.305,599.178 320.189,598.689 319.972,598.315" style="fill:rgb(35,31,32);fill-rule:nonzero;"/>
        </g>
        <g transform="matrix(1.39039,0,0,1.27069,277.169,-342.565)">
            <path d="M326.92,586.739C329.866,587.464 333.573,588.248 336.81,590.579C339.311,592.414 341.996,593.967 344.569,595.796C345.348,596.351 346.117,596.968 346.753,597.706C347.002,597.993 347.049,598.743 346.88,599.127C346.736,599.471 346.068,599.878 345.796,599.767C341.847,598.13 337.461,597.45 334.255,594.205C331.837,591.797 328.511,590.976 325.614,589.385C324.734,588.908 324.086,588.152 324.364,587.198C324.592,586.422 325.47,586.386 326.92,586.739" style="fill:rgb(35,31,32);fill-rule:nonzero;"/>
        </g>
        <g transform="matrix(1.39039,0,0,1.27069,277.169,-342.565)">
            <path d="M327.154,576.442C333.288,578.499 339.912,580.783 345.851,584.801C346.654,585.351 347.349,586.327 346.605,587.388C346.269,587.866 345.198,588.29 344.778,588.066C341.67,586.408 338.598,584.817 335.468,583.301C332.304,581.784 329.141,580.346 325.98,578.999C325.559,578.821 325.131,578.493 324.913,578.131C324.708,577.794 324.591,577.21 324.781,576.927C324.975,576.635 325.581,576.548 326.022,576.424C326.239,576.362 326.498,576.426 327.154,576.442" style="fill:rgb(35,31,32);fill-rule:nonzero;"/>
        </g>
        <g transform="matrix(1.39039,0,0,1.27069,277.169,-342.565)">
            <path d="M309.472,631.259C309.814,631.08 310.225,630.678 310.49,630.766C311.151,630.988 311.82,631.35 312.353,631.803C315.401,634.407 317.968,637.27 320.318,640.441C322.657,643.606 324.746,647.065 326.508,650.651C326.932,651.504 327.188,652.528 327.233,653.517C327.265,654.168 326.962,655.099 326.502,655.518C325.889,656.085 324.935,655.748 324.59,655.11C322.331,651.064 319.983,647.16 317.559,643.412C315.08,639.634 312.46,635.976 309.802,632.5C309.548,632.175 309.595,631.686 309.472,631.259" style="fill:rgb(35,31,32);fill-rule:nonzero;"/>
        </g>
        <g transform="matrix(1.39039,0,0,1.27069,277.169,-342.565)">
            <path d="M319.306,622.008C321.933,623.499 325.277,625.253 327.715,628.356C329.617,630.799 331.856,633.054 333.83,635.511C334.42,636.252 334.982,637.051 335.381,637.928C335.538,638.27 335.366,638.999 335.091,639.32C334.85,639.607 334.09,639.816 333.863,639.637C330.517,636.992 326.488,635.151 324.34,631.182C322.634,628.195 319.606,626.483 317.263,624.173C316.556,623.479 316.154,622.583 316.705,621.75C317.159,621.076 318.004,621.275 319.306,622.008" style="fill:rgb(35,31,32);fill-rule:nonzero;"/>
        </g>
        <g transform="matrix(1.39039,0,0,1.27069,277.169,-342.565)">
            <path d="M322.229,612.144C324.936,613.964 327.728,615.877 330.441,618.019C333.149,620.161 335.678,622.501 337.987,625.243C338.621,625.994 339.045,627.129 338.064,627.959C337.623,628.332 336.483,628.453 336.138,628.123C333.573,625.676 330.993,623.293 328.392,620.988C325.779,618.68 323.207,616.468 320.467,614.303C320.106,614.017 319.775,613.584 319.654,613.175C319.54,612.793 319.571,612.197 319.824,611.975C320.083,611.744 320.687,611.823 321.143,611.821C321.368,611.82 321.601,611.951 322.229,612.144" style="fill:rgb(35,31,32);fill-rule:nonzero;"/>
        </g>
        <g transform="matrix(1.39039,0,0,1.27069,277.169,-342.565)">
            <path d="M290.37,660.116C290.752,660.039 291.264,659.768 291.496,659.925C292.073,660.318 292.619,660.847 293.008,661.424C295.185,664.705 297.014,668.269 298.378,671.916C299.756,675.572 300.803,679.432 301.603,683.424C301.777,684.354 301.741,685.4 301.511,686.357C301.361,686.987 300.811,687.792 300.249,688.065C299.494,688.434 298.683,687.871 298.512,687.153C296.414,678.229 293.674,669.601 290.369,661.415C290.211,661.033 290.363,660.551 290.37,660.116" style="fill:rgb(35,31,32);fill-rule:nonzero;"/>
        </g>
        <g transform="matrix(1.39039,0,0,1.27069,277.169,-342.565)">
            <path d="M302.338,653.855C304.466,656.002 307.26,658.632 308.768,662.278C309.924,665.133 311.438,667.881 312.682,670.785C313.061,671.666 313.398,672.596 313.561,673.559C313.633,673.942 313.27,674.596 312.91,674.822C312.596,675.031 311.803,675.021 311.634,674.789C309.13,671.345 305.785,668.517 304.707,664.05C303.893,660.73 301.451,658.272 299.838,655.427C299.361,654.58 299.191,653.59 299.921,652.917C300.516,652.371 301.283,652.797 302.338,653.855" style="fill:rgb(35,31,32);fill-rule:nonzero;"/>
        </g>
        <g transform="matrix(1.39039,0,0,1.27069,277.169,-342.565)">
            <path d="M307.887,645.187C309.981,647.662 312.133,650.251 314.144,653.035C316.133,655.806 318.074,658.836 319.491,662.056C319.891,662.945 319.98,664.144 318.796,664.666C318.263,664.9 317.13,664.705 316.887,664.295C315.099,661.26 313.279,658.281 311.419,655.372C309.529,652.443 307.557,649.554 305.561,646.761C305.294,646.39 305.098,645.887 305.099,645.464C305.099,645.069 305.301,644.509 305.609,644.367C305.926,644.218 306.489,644.459 306.93,644.582C307.147,644.642 307.335,644.831 307.887,645.187" style="fill:rgb(35,31,32);fill-rule:nonzero;"/>
        </g>
        <g transform="matrix(1.39039,0,0,1.27069,277.169,-342.565)">
            <path d="M264.232,682.812C264.623,682.845 265.194,682.729 265.376,682.943C265.827,683.478 266.211,684.133 266.428,684.791C267.647,688.541 268.4,692.383 268.775,696.328C269.16,700.285 269.072,704.187 268.771,708.253C268.696,709.21 268.391,710.228 267.924,711.11C267.608,711.673 266.853,712.286 266.234,712.392C265.402,712.533 264.771,711.77 264.802,711.037C265.017,706.498 265.003,701.894 264.851,697.396C264.773,695.143 264.673,692.938 264.508,690.71C264.333,688.465 264.121,686.245 263.874,684.05C263.826,683.641 264.105,683.225 264.232,682.812" style="fill:rgb(35,31,32);fill-rule:nonzero;"/>
        </g>
        <g transform="matrix(1.39039,0,0,1.27069,277.169,-342.565)">
            <path d="M277.439,679.994C278.916,682.639 280.869,685.881 281.363,689.823C281.758,692.947 282.443,695.952 282.856,699.074C282.98,700.02 283.052,701.001 282.945,701.965C282.903,702.343 282.385,702.885 281.988,703.022C281.636,703.148 280.883,702.938 280.781,702.667C279.28,698.658 276.79,694.995 276.983,690.449C277.113,687.064 275.424,684.045 274.597,680.824C274.348,679.858 274.463,678.874 275.356,678.433C276.083,678.077 276.709,678.695 277.439,679.994" style="fill:rgb(35,31,32);fill-rule:nonzero;"/>
        </g>
        <g transform="matrix(1.39039,0,0,1.27069,277.169,-342.565)">
            <path d="M285.094,673.112C287.874,679.101 290.622,685.384 291.763,692.502C291.928,693.488 291.695,694.669 290.399,694.834C289.818,694.911 288.774,694.414 288.652,693.956C288.194,692.278 287.734,690.596 287.273,688.909C286.795,687.232 286.279,685.538 285.763,683.873C284.724,680.536 283.627,677.257 282.464,674.041C282.307,673.612 282.261,673.082 282.374,672.674C282.472,672.285 282.803,671.785 283.132,671.723C283.47,671.656 283.945,672.038 284.334,672.272C284.526,672.386 284.658,672.621 285.094,673.112" style="fill:rgb(35,31,32);fill-rule:nonzero;"/>
        </g>
        <g transform="matrix(1.39039,0,0,1.27069,277.169,-342.565)">
            <path d="M232.98,697.629C233.344,697.757 233.919,697.783 234.036,698.037C234.324,698.671 234.517,699.407 234.55,700.105C234.728,704.109 234.394,707.951 233.678,711.824C232.959,715.68 231.864,719.594 230.443,723.32C230.109,724.211 229.535,725.095 228.842,725.802C228.387,726.268 227.5,726.68 226.879,726.628C226.044,726.559 225.644,725.659 225.871,724.952C227.289,720.542 228.541,716.169 229.626,711.844C230.689,707.431 231.577,703.041 232.301,698.723C232.366,698.32 232.753,698.012 232.98,697.629" style="fill:rgb(35,31,32);fill-rule:nonzero;"/>
        </g>
        <g transform="matrix(1.39039,0,0,1.27069,277.169,-342.565)">
            <path d="M246.453,698.499C247.16,701.44 248.161,705.078 247.558,708.977C247.073,712.036 246.953,715.205 246.509,718.332C246.37,719.268 246.17,720.224 245.802,721.115C245.659,721.463 245.009,721.834 244.587,721.852C244.211,721.872 243.54,721.459 243.516,721.171C243.163,716.921 241.758,712.722 243.19,708.443C244.205,705.151 243.389,701.775 243.477,698.485C243.5,697.495 243.881,696.59 244.866,696.425C245.669,696.297 246.096,697.04 246.453,698.499" style="fill:rgb(35,31,32);fill-rule:nonzero;"/>
        </g>
        <g transform="matrix(1.39039,0,0,1.27069,277.169,-342.565)">
            <path d="M255.658,693.899C256.175,697.118 256.683,700.463 256.97,703.906C257.26,707.359 257.273,710.794 256.848,714.354C256.732,715.33 256.192,716.414 254.916,716.263C254.341,716.194 253.476,715.448 253.48,714.968C253.516,711.425 253.496,707.913 253.404,704.44C253.309,700.962 253.161,697.559 252.875,694.082C252.837,693.623 252.928,693.086 253.144,692.719C253.346,692.376 253.804,691.992 254.139,692.025C254.485,692.058 254.84,692.553 255.152,692.886C255.307,693.049 255.37,693.309 255.658,693.899" style="fill:rgb(35,31,32);fill-rule:nonzero;"/>
        </g>
        <g transform="matrix(1.39039,0,0,1.27069,277.169,-342.565)">
            <path d="M198.859,703.355C199.176,703.586 199.724,703.782 199.768,704.06C199.875,704.751 199.861,705.51 199.704,706.186C198.79,710.026 197.431,713.702 195.699,717.27C193.968,720.836 191.865,724.132 189.497,727.446C188.936,728.224 188.147,728.935 187.291,729.445C186.728,729.788 185.766,729.897 185.183,729.67C184.4,729.357 184.257,728.377 184.664,727.767C187.202,724.011 189.583,720.043 191.792,716.134C192.897,714.172 193.959,712.226 194.978,710.254C195.998,708.243 196.974,706.234 197.907,704.228C198.079,703.854 198.536,703.642 198.859,703.355" style="fill:rgb(35,31,32);fill-rule:nonzero;"/>
        </g>
        <g transform="matrix(1.39039,0,0,1.27069,277.169,-342.565)">
            <path d="M211.605,707.831C211.488,710.862 211.466,714.652 209.834,718.29C208.539,721.111 207.559,724.052 206.285,726.94C205.899,727.814 205.449,728.691 204.855,729.462C204.624,729.764 203.899,729.961 203.489,729.873C203.124,729.798 202.591,729.232 202.645,728.943C203.452,724.738 203.235,720.311 205.768,716.516C207.64,713.664 207.776,710.242 208.751,707.083C209.041,706.125 209.651,705.339 210.641,705.42C211.447,705.487 211.659,706.34 211.605,707.831" style="fill:rgb(35,31,32);fill-rule:nonzero;"/>
        </g>
        <g transform="matrix(1.39039,0,0,1.27069,277.169,-342.565)">
            <path d="M221.726,705.98C220.96,712.423 220.056,719.347 217.315,725.986C216.937,726.882 216.121,727.759 214.931,727.244C214.395,727.011 213.764,726.047 213.898,725.59C214.897,722.211 215.839,718.887 216.692,715.509C217.54,712.106 218.31,708.72 218.989,705.354C219.078,704.906 219.313,704.421 219.622,704.135C219.911,703.867 220.458,703.635 220.773,703.765C221.099,703.899 221.305,704.465 221.515,704.867C221.619,705.064 221.609,705.333 221.726,705.98" style="fill:rgb(35,31,32);fill-rule:nonzero;"/>
        </g>
        <g transform="matrix(1.39039,0,0,1.27069,277.169,-342.565)">
            <path d="M164.428,699.772C164.673,700.073 165.149,700.397 165.117,700.676C165.035,701.368 164.818,702.097 164.484,702.71C162.568,706.192 160.264,709.406 157.656,712.297C155.048,715.198 152.082,717.97 148.924,720.457C148.177,721.041 147.23,721.494 146.272,721.733C145.643,721.892 144.672,721.777 144.169,721.407C143.493,720.909 143.619,719.931 144.179,719.447C147.68,716.407 150.993,713.4 154.187,710.189C157.387,706.959 160.407,703.726 163.274,700.379C163.541,700.061 164.038,699.969 164.428,699.772" style="fill:rgb(35,31,32);fill-rule:nonzero;"/>
        </g>
        <g transform="matrix(1.39039,0,0,1.27069,277.169,-342.565)">
            <path d="M175.495,707.506C174.569,710.415 173.533,714.066 171,717.06C168.999,719.418 167.258,722.04 165.253,724.497C164.644,725.246 163.973,725.981 163.2,726.538C162.897,726.759 162.15,726.734 161.78,726.528C161.45,726.348 161.091,725.643 161.22,725.385C163.125,721.553 164.087,717.307 167.547,714.311C170.12,712.037 171.174,708.732 172.954,705.974C173.488,705.138 174.279,704.581 175.21,704.937C175.97,705.203 175.946,706.079 175.495,707.506" style="fill:rgb(35,31,32);fill-rule:nonzero;"/>
        </g>
        <g transform="matrix(1.39039,0,0,1.27069,277.169,-342.565)">
            <path d="M185.753,708.372C183.286,714.38 180.553,720.929 176.149,726.471C175.545,727.242 174.521,727.884 173.51,727.087C173.055,726.728 172.703,725.638 172.955,725.231C174.824,722.228 176.627,719.223 178.351,716.214C179.212,714.71 180.054,713.204 180.874,711.698C181.697,710.162 182.499,708.617 183.278,707.075C183.485,706.663 183.841,706.253 184.217,706.053C184.568,705.865 185.158,705.777 185.428,705.98C185.707,706.188 185.753,706.797 185.847,707.244C185.895,707.463 185.814,707.718 185.753,708.372" style="fill:rgb(35,31,32);fill-rule:nonzero;"/>
        </g>
        <g transform="matrix(1.39039,0,0,1.27069,277.169,-342.565)">
            <path d="M132.301,686.992C132.452,687.354 132.817,687.806 132.71,688.066C132.442,688.712 132.035,689.354 131.55,689.849C128.775,692.655 125.704,695.088 122.368,697.234C119.043,699.365 115.519,701.101 111.769,702.696C110.887,703.063 109.829,703.28 108.848,703.244C108.204,703.22 107.311,702.834 106.933,702.334C106.425,701.661 106.813,700.751 107.48,700.441C109.562,699.47 111.594,698.5 113.62,697.461C115.657,696.407 117.659,695.33 119.623,694.231C121.587,693.131 123.515,692.01 125.404,690.867C127.318,689.682 129.197,688.472 131.035,687.244C131.377,687.014 131.876,687.07 132.301,686.992" style="fill:rgb(35,31,32);fill-rule:nonzero;"/>
        </g>
        <g transform="matrix(1.39039,0,0,1.27069,277.169,-342.565)">
            <path d="M140.858,697.431C139.186,699.959 137.202,703.184 133.922,705.438C131.328,707.223 128.982,709.186 126.389,711C125.606,711.545 124.766,712.06 123.858,712.408C123.504,712.545 122.783,712.335 122.478,712.045C122.204,711.791 122.045,711.027 122.239,710.812C125.115,707.638 127.228,703.745 131.361,701.825C134.439,700.366 136.328,697.518 138.814,695.297C139.558,694.631 140.486,694.278 141.288,694.866C141.939,695.346 141.677,696.186 140.858,697.431" style="fill:rgb(35,31,32);fill-rule:nonzero;"/>
        </g>
        <g transform="matrix(1.39039,0,0,1.27069,277.169,-342.565)">
            <path d="M150.476,701.076C148.46,703.692 146.374,706.306 144.064,708.828C141.753,711.352 139.22,713.778 136.317,715.912C135.516,716.513 134.375,716.811 133.624,715.755C133.287,715.276 133.249,714.121 133.601,713.801C138.782,709.147 143.81,704.174 148.451,699.152C148.759,698.816 149.21,698.525 149.622,698.444C150.003,698.376 150.599,698.439 150.807,698.698C151.021,698.966 150.902,699.562 150.873,700.015C150.859,700.238 150.712,700.462 150.476,701.076" style="fill:rgb(35,31,32);fill-rule:nonzero;"/>
        </g>
        <g transform="matrix(1.39039,0,0,1.27069,277.169,-342.565)">
            <path d="M104.767,666.013C104.803,666.414 105.057,666.924 104.883,667.147C104.453,667.695 103.888,668.205 103.283,668.556C99.836,670.531 96.262,672.01 92.484,673.169C90.599,673.745 88.672,674.234 86.705,674.65C84.771,675.036 82.802,675.344 80.799,675.594C79.851,675.711 78.799,675.613 77.848,675.329C77.225,675.141 76.437,674.556 76.206,673.974C75.905,673.183 76.525,672.409 77.247,672.293C81.768,671.549 86.277,670.599 90.616,669.567C94.964,668.529 99.329,667.242 103.492,665.903C103.88,665.776 104.341,665.969 104.767,666.013" style="fill:rgb(35,31,32);fill-rule:nonzero;"/>
        </g>
        <g transform="matrix(1.39039,0,0,1.27069,277.169,-342.565)">
            <path d="M110.206,678.379C107.919,680.356 105.144,682.919 101.399,684.181C98.464,685.15 95.564,686.536 92.619,687.541C91.723,687.85 90.781,688.114 89.819,688.199C89.444,688.233 88.813,687.83 88.602,687.465C88.411,687.142 88.468,686.359 88.712,686.204C92.326,683.932 95.408,680.751 99.875,680.046C103.232,679.47 105.885,677.163 108.843,675.735C109.735,675.3 110.715,675.22 111.319,676.016C111.808,676.665 111.328,677.404 110.206,678.379" style="fill:rgb(35,31,32);fill-rule:nonzero;"/>
        </g>
        <g transform="matrix(1.39039,0,0,1.27069,277.169,-342.565)">
            <path d="M118.515,684.456C115.89,686.394 113.148,688.382 110.218,690.219C107.307,692.031 104.24,693.647 100.884,694.901C99.964,695.248 98.751,695.268 98.298,694.068C98.088,693.535 98.383,692.39 98.801,692.185C101.942,690.617 105.073,688.961 108.113,687.288C111.171,685.593 114.111,683.923 117.07,682.073C117.461,681.828 117.981,681.662 118.407,681.685C118.805,681.706 119.357,681.935 119.482,682.248C119.613,682.569 119.335,683.112 119.184,683.542C119.11,683.754 118.908,683.929 118.515,684.456" style="fill:rgb(35,31,32);fill-rule:nonzero;"/>
        </g>
        <g transform="matrix(1.39039,0,0,1.27069,277.169,-342.565)">
            <path d="M83.921,638.378C83.867,638.763 83.954,639.334 83.729,639.5C83.167,639.913 82.486,640.252 81.811,640.426C74.079,642.405 66.273,642.349 58.217,641.174C57.28,641.028 56.303,640.645 55.476,640.109C54.93,639.757 54.352,638.97 54.279,638.349C54.182,637.515 54.983,636.94 55.718,637.018C60.33,637.499 64.779,637.87 69.316,638.006C73.863,638.137 78.269,638.147 82.692,637.947C83.106,637.925 83.512,638.227 83.921,638.378" style="fill:rgb(35,31,32);fill-rule:nonzero;"/>
        </g>
        <g transform="matrix(1.39039,0,0,1.27069,277.169,-342.565)">
            <path d="M85.83,651.746C83.099,653.035 79.665,654.808 75.762,654.99C72.678,655.132 69.577,655.646 66.418,655.855C65.464,655.917 64.459,655.934 63.512,655.757C63.144,655.687 62.654,655.123 62.553,654.712C62.46,654.347 62.731,653.604 63.007,653.521C65.052,652.925 67.021,652.052 69.044,651.411C71.062,650.771 73.135,650.36 75.429,650.581C78.838,650.915 81.973,649.431 85.199,648.854C86.176,648.673 87.106,648.883 87.517,649.782C87.837,650.522 87.18,651.104 85.83,651.746" style="fill:rgb(35,31,32);fill-rule:nonzero;"/>
        </g>
        <g transform="matrix(1.39039,0,0,1.27069,277.169,-342.565)">
            <path d="M92.171,659.855C89.134,661.007 85.972,662.176 82.671,663.148C79.365,664.123 75.916,664.903 72.395,665.174C71.421,665.257 70.258,664.944 70.156,663.657C70.111,663.078 70.67,662.076 71.139,661.983C78.066,660.627 84.788,659.097 91.45,657.146C91.891,657.017 92.432,656.999 92.832,657.14C93.206,657.27 93.669,657.645 93.702,657.983C93.737,658.33 93.323,658.78 93.06,659.154C92.932,659.339 92.69,659.453 92.171,659.855" style="fill:rgb(35,31,32);fill-rule:nonzero;"/>
        </g>
        <g transform="matrix(1.39039,0,0,1.27069,277.169,-342.565)">
            <path d="M71.318,606.182C71.155,606.539 71.072,607.115 70.809,607.214C70.154,607.459 69.408,607.6 68.715,607.584C64.774,607.471 60.903,606.887 57.062,605.912C53.195,604.945 49.564,603.545 45.837,601.892C44.962,601.499 44.107,600.868 43.435,600.131C42.979,599.648 42.684,598.727 42.787,598.111C42.937,597.279 43.868,596.942 44.547,597.218C48.735,598.949 53.109,600.484 57.377,601.858C59.526,602.542 61.626,603.193 63.788,603.786C65.961,604.376 68.123,604.924 70.273,605.429C70.674,605.521 70.972,605.924 71.318,606.182" style="fill:rgb(35,31,32);fill-rule:nonzero;"/>
        </g>
        <g transform="matrix(1.39039,0,0,1.27069,277.169,-342.565)">
            <path d="M69.533,619.557C66.545,620.062 62.834,620.815 58.95,619.957C55.868,619.283 52.834,618.909 49.741,618.252C48.808,618.051 47.859,617.788 46.986,617.363C46.644,617.197 46.306,616.526 46.31,616.106C46.31,615.732 46.759,615.093 47.049,615.088C51.331,615.024 55.618,613.91 59.838,615.62C62.996,616.875 66.381,616.306 69.699,616.606C70.693,616.695 71.583,617.132 71.701,618.12C71.794,618.923 71.002,619.305 69.533,619.557" style="fill:rgb(35,31,32);fill-rule:nonzero;"/>
        </g>
        <g transform="matrix(1.39039,0,0,1.27069,277.169,-342.565)">
            <path d="M73.44,629.072C70.154,629.384 66.812,629.649 63.396,629.683C59.975,629.718 56.474,629.524 52.934,628.861C51.943,628.688 50.947,628.057 51.207,626.786C51.328,626.213 52.145,625.397 52.619,625.435C59.554,626.043 66.628,626.317 73.46,626.279C73.916,626.275 74.436,626.406 74.777,626.651C75.085,626.884 75.455,627.359 75.404,627.689C75.354,628.029 74.837,628.349 74.486,628.637C74.314,628.78 74.049,628.825 73.44,629.072" style="fill:rgb(35,31,32);fill-rule:nonzero;"/>
        </g>
        <g transform="matrix(1.39039,0,0,1.27069,277.169,-342.565)">
            <path d="M67.893,571.733C67.647,572.034 67.424,572.568 67.145,572.593C66.45,572.654 65.692,572.589 65.025,572.387C57.38,570.052 50.767,565.954 44.458,560.767C43.736,560.156 43.103,559.322 42.678,558.435C42.396,557.852 42.316,556.88 42.579,556.313C42.932,555.55 43.916,555.474 44.503,555.922C51.75,561.514 59.361,566.468 67.068,570.724C67.433,570.921 67.622,571.391 67.893,571.733" style="fill:rgb(35,31,32);fill-rule:nonzero;"/>
        </g>
        <g transform="matrix(1.39039,0,0,1.27069,277.169,-342.565)">
            <path d="M62.55,584.157C59.516,583.836 55.723,583.556 52.285,581.679C49.574,580.195 46.655,579.021 43.846,577.556C43.002,577.113 42.12,576.605 41.421,575.962C41.143,575.711 41.018,574.975 41.146,574.572C41.256,574.213 41.874,573.72 42.153,573.793C44.209,574.346 46.345,574.625 48.407,575.13C50.47,575.633 52.435,576.36 54.285,577.743C57.028,579.802 60.478,580.168 63.537,581.356C64.465,581.712 65.163,582.376 65.009,583.36C64.902,584.158 64.038,584.312 62.55,584.157" style="fill:rgb(35,31,32);fill-rule:nonzero;"/>
        </g>
        <g transform="matrix(1.39039,0,0,1.27069,277.169,-342.565)">
            <path d="M63.764,594.38C57.384,593.175 50.418,591.813 44.105,588.615C43.228,588.179 42.393,587.306 42.971,586.156C43.231,585.638 44.228,585.074 44.678,585.239C47.995,586.464 51.301,587.625 54.595,588.708C56.241,589.249 57.885,589.771 59.526,590.271C61.196,590.768 62.871,591.243 64.538,591.696C64.982,591.815 65.456,592.082 65.728,592.409C65.982,592.715 66.187,593.276 66.042,593.58C65.894,593.895 65.307,594.063 64.888,594.245C64.683,594.336 64.417,594.308 63.764,594.38" style="fill:rgb(35,31,32);fill-rule:nonzero;"/>
        </g>
        <g transform="matrix(1.39039,0,0,1.27069,277.169,-342.565)">
            <path d="M73.809,537.648C73.482,537.868 73.108,538.316 72.832,538.264C72.144,538.134 71.433,537.867 70.85,537.494C67.548,535.356 64.552,532.853 61.787,530.032C58.985,527.199 56.551,524.099 54.267,520.768C53.726,519.979 53.327,518.997 53.14,518.02C53.017,517.378 53.172,516.407 53.605,515.944C54.168,515.312 55.14,515.507 55.576,516.095C61.089,523.467 66.981,530.268 73.314,536.465C73.607,536.751 73.65,537.249 73.809,537.648" style="fill:rgb(35,31,32);fill-rule:nonzero;"/>
        </g>
        <g transform="matrix(1.39039,0,0,1.27069,277.169,-342.565)">
            <path d="M65.351,548.16C62.538,547.043 58.98,545.762 56.118,543.018C54.997,541.936 53.807,540.913 52.604,539.89C51.417,538.871 50.246,537.858 49.107,536.777C48.417,536.123 47.746,535.407 47.224,534.592C47.019,534.273 47.084,533.526 47.308,533.169C47.504,532.85 48.224,532.538 48.473,532.684C52.16,534.848 56.403,536.119 59.103,539.764C61.109,542.464 64.409,543.761 67.046,545.728C67.846,546.319 68.375,547.153 67.955,548.057C67.612,548.79 66.736,548.706 65.351,548.16" style="fill:rgb(35,31,32);fill-rule:nonzero;"/>
        </g>
        <g transform="matrix(1.39039,0,0,1.27069,277.169,-342.565)">
            <path d="M63.775,558.327C57.839,555.442 51.716,552.306 46.361,547.509C45.636,546.853 45.011,545.777 45.927,544.833C46.331,544.407 47.457,544.133 47.841,544.412C50.641,546.468 53.547,548.479 56.46,550.409C59.368,552.339 62.286,554.188 65.215,555.945C65.606,556.178 65.974,556.558 66.162,556.949C66.331,557.312 66.39,557.909 66.174,558.164C65.953,558.429 65.345,558.434 64.895,558.498C64.673,558.53 64.424,558.432 63.775,558.327" style="fill:rgb(35,31,32);fill-rule:nonzero;"/>
        </g>
        <g transform="matrix(1.39039,0,0,1.27069,277.169,-342.565)">
            <path d="M88.764,506.462C88.398,506.591 87.932,506.931 87.681,506.807C87.056,506.497 86.443,506.047 85.978,505.527C84.664,504.04 83.446,502.486 82.314,500.866C81.188,499.25 80.191,497.598 79.249,495.871C77.396,492.442 75.765,488.706 74.5,484.91C74.199,484.01 74.088,482.965 74.182,481.983C74.243,481.336 74.674,480.46 75.19,480.11C75.884,479.64 76.763,480.086 77.032,480.776C78.721,485.091 80.463,489.237 82.396,493.31C84.363,497.409 86.401,501.348 88.582,505.17C88.791,505.529 88.71,506.028 88.764,506.462" style="fill:rgb(35,31,32);fill-rule:nonzero;"/>
        </g>
        <g transform="matrix(1.39039,0,0,1.27069,277.169,-342.565)">
            <path d="M77.758,514.286C75.345,512.442 72.226,510.221 70.268,506.831C68.724,504.154 66.842,501.632 65.206,498.918C64.71,498.096 64.235,497.212 63.972,496.297C63.865,495.937 64.14,495.243 64.459,494.964C64.739,494.714 65.523,494.613 65.723,494.821C67.192,496.365 68.871,497.715 70.369,499.221C71.877,500.729 73.163,502.365 74.024,504.508C75.295,507.695 78.052,509.8 80.048,512.404C80.661,513.192 80.896,514.113 80.275,514.884C79.766,515.508 78.949,515.191 77.758,514.286" style="fill:rgb(35,31,32);fill-rule:nonzero;"/>
        </g>
        <g transform="matrix(1.39039,0,0,1.27069,277.169,-342.565)">
            <path d="M73.476,523.642C71.055,521.472 68.561,519.198 66.179,516.71C64.989,515.466 63.823,514.165 62.717,512.798C61.638,511.444 60.614,510.02 59.671,508.51C59.15,507.682 58.893,506.503 59.987,505.821C60.48,505.514 61.626,505.55 61.924,505.925C66.329,511.472 70.738,516.727 75.543,521.756C75.861,522.088 76.126,522.561 76.186,522.981C76.243,523.373 76.124,523.957 75.84,524.142C75.549,524.333 74.96,524.172 74.507,524.11C74.284,524.081 74.072,523.919 73.476,523.642" style="fill:rgb(35,31,32);fill-rule:nonzero;"/>
        </g>
        <g transform="matrix(1.39039,0,0,1.27069,277.169,-342.565)">
            <path d="M111.599,480.444C111.208,480.467 110.662,480.662 110.453,480.475C109.934,480.007 109.464,479.41 109.158,478.786C107.437,475.23 106.161,471.515 105.247,467.651C104.383,463.849 103.885,459.903 103.633,455.839C103.568,454.869 103.737,453.827 104.105,452.923C104.341,452.322 105,451.605 105.596,451.413C106.397,451.155 107.125,451.823 107.196,452.556C107.417,454.843 107.671,457.104 107.959,459.34C108.254,461.585 108.623,463.858 109.002,466.074C109.771,470.518 110.658,474.835 111.781,479.163C111.885,479.562 111.667,480.016 111.599,480.444" style="fill:rgb(35,31,32);fill-rule:nonzero;"/>
        </g>
        <g transform="matrix(1.39039,0,0,1.27069,277.169,-342.565)">
            <path d="M98.893,485.027C97.068,482.604 94.692,479.654 93.658,475.804C92.88,472.8 91.778,469.899 90.939,466.854C90.686,465.933 90.479,464.968 90.451,463.994C90.44,463.614 90.876,463.002 91.249,462.811C91.573,462.631 92.371,462.762 92.504,463.012C94.51,466.753 97.496,470.067 97.928,474.606C98.281,478.001 100.341,480.741 101.581,483.805C101.96,484.73 101.984,485.725 101.164,486.287C100.496,486.743 99.793,486.217 98.893,485.027" style="fill:rgb(35,31,32);fill-rule:nonzero;"/>
        </g>
        <g transform="matrix(1.39039,0,0,1.27069,277.169,-342.565)">
            <path d="M92.226,492.871C88.706,487.352 85.091,481.462 82.994,474.561C82.72,473.629 82.799,472.434 84.048,472.083C84.61,471.926 85.709,472.274 85.894,472.713C87.259,475.966 88.612,479.121 90.106,482.298C91.595,485.469 93.133,488.578 94.728,491.614C94.942,492.017 95.065,492.541 95.005,492.958C94.952,493.35 94.661,493.865 94.355,493.98C94.031,494.092 93.509,493.78 93.093,493.601C92.887,493.513 92.725,493.299 92.226,492.871" style="fill:rgb(35,31,32);fill-rule:nonzero;"/>
        </g>
        <g transform="matrix(1.39039,0,0,1.27069,277.169,-342.565)">
            <path d="M140.555,461.498C140.171,461.409 139.588,461.441 139.437,461.204C139.065,460.618 138.771,459.91 138.646,459.231C137.954,455.359 137.738,451.463 137.911,447.517C138.001,445.555 138.17,443.538 138.455,441.587C138.739,439.634 139.107,437.671 139.542,435.697C139.749,434.763 140.194,433.802 140.78,432.999C141.166,432.474 141.978,431.916 142.614,431.917C143.46,431.898 143.981,432.742 143.849,433.461C142.229,442.524 141.286,451.474 141.082,460.329C141.073,460.739 140.738,461.11 140.555,461.498" style="fill:rgb(35,31,32);fill-rule:nonzero;"/>
        </g>
        <g transform="matrix(1.39039,0,0,1.27069,277.169,-342.565)">
            <path d="M127.093,462.493C125.991,459.676 124.498,456.202 124.553,452.242C124.606,449.128 124.285,445.965 124.324,442.855C124.331,441.905 124.396,440.927 124.636,439.989C124.729,439.623 125.319,439.161 125.733,439.082C126.1,439.008 126.819,439.321 126.883,439.603C127.819,443.773 129.788,447.741 128.966,452.198C128.66,453.852 128.842,455.506 129.142,457.16C129.439,458.806 129.844,460.439 130.032,462.078C130.146,463.065 129.896,464.019 128.947,464.327C128.175,464.575 127.638,463.877 127.093,462.493" style="fill:rgb(35,31,32);fill-rule:nonzero;"/>
        </g>
        <g transform="matrix(1.39039,0,0,1.27069,277.169,-342.565)">
            <path d="M118.588,468.288C117.638,465.17 116.656,461.892 115.921,458.548C115.196,455.217 114.68,451.763 114.615,448.179C114.599,447.201 114.967,446.024 116.267,446.024C116.854,446.03 117.823,446.667 117.881,447.137C118.286,450.58 118.821,454.112 119.385,457.537C119.959,460.978 120.586,464.355 121.308,467.708C121.409,468.159 121.394,468.706 121.231,469.102C121.08,469.472 120.681,469.919 120.346,469.934C120,469.951 119.581,469.509 119.227,469.223C119.052,469.083 118.954,468.834 118.588,468.288" style="fill:rgb(35,31,32);fill-rule:nonzero;"/>
        </g>
        <g transform="matrix(1.39039,0,0,1.27069,277.169,-342.565)">
            <path d="M173.545,451.147C173.201,450.966 172.634,450.855 172.553,450.587C172.354,449.918 172.264,449.163 172.327,448.469C173.067,440.514 175.751,433.205 179.565,425.985C180.018,425.155 180.707,424.368 181.49,423.773C182.004,423.38 182.94,423.105 183.548,423.249C184.366,423.442 184.639,424.391 184.317,425.055C180.303,433.279 176.975,441.727 174.365,450.137C174.246,450.534 173.825,450.813 173.545,451.147" style="fill:rgb(35,31,32);fill-rule:nonzero;"/>
        </g>
        <g transform="matrix(1.39039,0,0,1.27069,277.169,-342.565)">
            <path d="M160.319,448.437C160.022,445.427 159.508,441.604 160.651,437.867C161.554,434.916 162.114,431.823 162.982,428.777C163.245,427.856 163.569,426.91 164.053,426.069C164.243,425.746 164.939,425.476 165.361,425.52C165.736,425.555 166.344,426.062 166.329,426.35C166.202,428.475 166.361,430.622 166.282,432.743C166.204,434.852 165.895,436.952 164.915,439.037C163.453,442.136 163.796,445.587 163.254,448.819C163.097,449.804 162.583,450.598 161.6,450.685C160.797,450.739 160.47,449.925 160.319,448.437" style="fill:rgb(35,31,32);fill-rule:nonzero;"/>
        </g>
        <g transform="matrix(1.39039,0,0,1.27069,277.169,-342.565)">
            <path d="M150.561,451.692C150.493,448.443 150.451,445.069 150.643,441.63C150.739,439.911 150.894,438.175 151.136,436.429C151.386,434.707 151.73,432.995 152.189,431.275C152.439,430.329 153.125,429.338 154.372,429.672C154.933,429.824 155.689,430.687 155.619,431.16C154.569,438.156 153.744,444.975 153.351,451.917C153.325,452.375 153.16,452.891 152.895,453.222C152.647,453.531 152.139,453.842 151.811,453.761C151.472,453.679 151.187,453.138 150.923,452.765C150.792,452.582 150.765,452.316 150.561,451.692" style="fill:rgb(35,31,32);fill-rule:nonzero;"/>
        </g>
        <g transform="matrix(1.39039,0,0,1.27069,277.169,-342.565)">
            <path d="M208.163,450.034C207.882,449.745 207.362,449.511 207.356,449.228C207.343,448.532 207.459,447.78 207.706,447.125C209.129,443.416 210.963,440.014 213.158,436.73C214.255,435.094 215.44,433.497 216.703,431.933C217.963,430.382 219.29,428.928 220.687,427.465C221.347,426.777 222.225,426.191 223.142,425.813C223.745,425.563 224.723,425.534 225.273,425.825C226.014,426.209 226.016,427.232 225.532,427.767C222.483,431.25 219.596,434.785 216.884,438.331C214.166,441.909 211.599,445.642 209.22,449.314C209,449.659 208.521,449.799 208.163,450.034" style="fill:rgb(35,31,32);fill-rule:nonzero;"/>
        </g>
        <g transform="matrix(1.39039,0,0,1.27069,277.169,-342.565)">
            <path d="M196.129,443.904C196.654,440.925 197.187,437.181 199.292,433.828C200.955,431.207 202.325,428.31 203.972,425.681C204.471,424.874 205.034,424.073 205.726,423.399C205.995,423.135 206.739,423.048 207.133,423.197C207.485,423.326 207.936,423.968 207.844,424.242C206.48,428.289 206.102,432.702 203.085,436.075C200.85,438.606 200.249,442.106 198.858,445.078C198.441,445.981 197.731,446.666 196.759,446.435C195.97,446.245 195.874,445.37 196.129,443.904" style="fill:rgb(35,31,32);fill-rule:nonzero;"/>
        </g>
        <g transform="matrix(1.39039,0,0,1.27069,277.169,-342.565)">
            <path d="M185.842,444.417C187.473,438.023 189.313,431.388 192.923,425.183C193.417,424.343 194.344,423.513 195.451,424.207C195.95,424.517 196.445,425.565 196.25,425.997C194.807,429.149 193.426,432.43 192.124,435.658C190.822,438.894 189.599,442.123 188.467,445.345C188.317,445.771 188.018,446.216 187.674,446.478C187.351,446.717 186.779,446.895 186.485,446.735C186.181,446.571 186.053,445.976 185.9,445.548C185.824,445.338 185.87,445.074 185.842,444.417" style="fill:rgb(35,31,32);fill-rule:nonzero;"/>
        </g>
        <g transform="matrix(1.39039,0,0,1.27069,277.169,-342.565)">
            <path d="M241.739,458.314C241.539,457.979 241.114,457.586 241.183,457.314C241.361,456.639 241.676,455.947 242.09,455.388C244.454,452.231 247.182,449.351 250.18,446.804C253.162,444.286 256.443,442.026 259.943,439.932C260.777,439.424 261.763,439.133 262.744,439.028C263.388,438.961 264.328,439.215 264.774,439.655C265.371,440.247 265.112,441.2 264.493,441.6C260.626,444.096 256.928,446.634 253.31,449.405C249.703,452.154 246.293,454.881 242.961,457.883C242.653,458.159 242.151,458.176 241.739,458.314" style="fill:rgb(35,31,32);fill-rule:nonzero;"/>
        </g>
        <g transform="matrix(1.39039,0,0,1.27069,277.169,-342.565)">
            <path d="M231.837,449.144C233.145,446.413 234.678,442.916 237.613,440.249C239.912,438.206 241.992,435.86 244.31,433.717C245.013,433.066 245.777,432.437 246.63,431.962C246.961,431.782 247.714,431.866 248.045,432.137C248.347,432.364 248.603,433.116 248.441,433.354C246.041,436.85 244.484,440.988 240.642,443.489C237.789,445.365 236.294,448.489 234.158,450.962C233.519,451.701 232.641,452.204 231.765,451.736C231.052,451.359 231.195,450.492 231.837,449.144" style="fill:rgb(35,31,32);fill-rule:nonzero;"/>
        </g>
        <g transform="matrix(1.39039,0,0,1.27069,277.169,-342.565)">
            <path d="M221.813,446.836C225.065,441.252 228.657,435.186 233.795,430.23C234.498,429.554 235.597,429.069 236.487,430.01C236.887,430.434 237.085,431.568 236.78,431.934C234.522,434.636 232.329,437.349 230.215,440.077C228.09,442.852 226.035,445.674 224.077,448.496C223.817,448.873 223.409,449.226 223.012,449.368C222.64,449.501 222.045,449.499 221.807,449.257C221.561,449.008 221.598,448.398 221.566,447.941C221.549,447.716 221.664,447.475 221.813,446.836" style="fill:rgb(35,31,32);fill-rule:nonzero;"/>
        </g>
        <g transform="matrix(1.39039,0,0,1.27069,277.169,-342.565)">
            <path d="M271.843,475.355C271.745,474.973 271.447,474.472 271.588,474.229C271.942,473.625 272.432,473.045 272.979,472.621C279.208,467.844 286.525,464.632 294.305,462.601C295.231,462.355 296.29,462.305 297.274,462.453C297.932,462.539 298.759,463.047 299.061,463.599C299.469,464.338 298.96,465.189 298.26,465.403C293.923,466.706 289.548,468.298 285.385,469.912C281.234,471.51 277.087,473.372 273.126,475.285C272.758,475.465 272.273,475.338 271.843,475.355" style="fill:rgb(35,31,32);fill-rule:nonzero;"/>
        </g>
        <g transform="matrix(1.39039,0,0,1.27069,277.169,-342.565)">
            <path d="M264.782,463.844C266.781,461.572 269.185,458.652 272.732,456.881C274.128,456.189 275.492,455.412 276.859,454.624C278.213,453.857 279.565,453.087 280.964,452.378C281.813,451.948 282.712,451.555 283.656,451.337C284.025,451.251 284.707,451.562 284.967,451.893C285.202,452.184 285.254,452.965 285.032,453.152C281.756,455.899 279.133,459.468 274.79,460.788C271.57,461.774 269.245,464.434 266.503,466.259C265.677,466.814 264.713,467.031 264.003,466.331C263.427,465.76 263.801,464.964 264.782,463.844" style="fill:rgb(35,31,32);fill-rule:nonzero;"/>
        </g>
        <g transform="matrix(1.39039,0,0,1.27069,277.169,-342.565)">
            <path d="M255.737,458.937C260.446,454.331 265.479,449.593 271.788,446.184C272.646,445.725 273.874,445.493 274.454,446.673C274.719,447.197 274.597,448.349 274.206,448.617C271.328,450.562 268.452,452.627 265.656,454.715C262.861,456.801 260.138,458.924 257.499,461.087C257.151,461.371 256.653,461.619 256.228,461.654C255.829,461.69 255.249,461.543 255.081,461.252C254.907,460.954 255.108,460.379 255.199,459.934C255.243,459.714 255.42,459.512 255.737,458.937" style="fill:rgb(35,31,32);fill-rule:nonzero;"/>
        </g>
        <g transform="matrix(1.39039,0,0,1.27069,277.169,-342.565)">
            <path d="M296.273,499.891C296.272,499.504 296.104,498.953 296.304,498.756C296.805,498.271 297.433,497.843 298.08,497.578C301.786,496.071 305.539,495.08 309.416,494.46C313.284,493.845 317.342,493.557 321.329,493.638C322.281,493.653 323.306,493.896 324.204,494.311C324.796,494.581 325.483,495.278 325.643,495.881C325.858,496.689 325.145,497.369 324.403,497.393C319.774,497.544 315.235,497.837 310.797,498.27C306.278,498.758 301.852,499.391 297.542,500.157C297.147,500.225 296.704,499.98 296.273,499.891" style="fill:rgb(35,31,32);fill-rule:nonzero;"/>
        </g>
        <g transform="matrix(1.39039,0,0,1.27069,277.169,-342.565)">
            <path d="M292.563,486.9C295.121,485.228 298.206,483.075 302.078,482.34C305.122,481.772 308.131,480.836 311.24,480.193C312.181,480 313.138,479.875 314.102,479.921C314.477,479.94 315.043,480.428 315.201,480.82C315.345,481.167 315.18,481.938 314.917,482.057C311.027,483.821 307.566,486.536 303.028,486.643C299.593,486.786 296.686,488.684 293.56,489.7C292.62,490.008 291.641,489.951 291.157,489.075C290.744,488.381 291.309,487.723 292.563,486.9" style="fill:rgb(35,31,32);fill-rule:nonzero;"/>
        </g>
        <g transform="matrix(1.39039,0,0,1.27069,277.169,-342.565)">
            <path d="M285.158,479.746C290.864,476.65 297.117,473.309 304.036,471.791C304.992,471.575 306.192,471.723 306.472,472.978C306.598,473.544 306.183,474.61 305.73,474.767C302.384,475.915 299.086,477.106 295.848,478.35C294.229,478.972 292.624,479.607 291.036,480.257C289.428,480.927 287.83,481.616 286.253,482.318C285.833,482.506 285.298,482.599 284.881,482.516C284.491,482.439 283.978,482.134 283.898,481.805C283.814,481.468 284.162,480.967 284.372,480.561C284.474,480.36 284.698,480.215 285.158,479.746" style="fill:rgb(35,31,32);fill-rule:nonzero;"/>
        </g>
        <g transform="matrix(1.39039,0,0,1.27069,277.169,-342.565)">
            <path d="M313.152,530.087C313.261,529.712 313.258,529.133 313.504,528.999C314.118,528.666 314.839,528.424 315.529,528.344C319.451,527.915 323.412,527.945 327.326,528.392C331.201,528.851 335.09,529.705 339.009,530.833C339.948,531.097 340.848,531.615 341.587,532.261C342.075,532.686 342.531,533.548 342.512,534.174C342.487,535.016 341.613,535.477 340.898,535.297C336.445,534.173 332.053,533.208 327.561,532.455C323.094,531.696 318.767,531.07 314.301,530.685C313.89,530.649 313.534,530.293 313.152,530.087" style="fill:rgb(35,31,32);fill-rule:nonzero;"/>
        </g>
        <g transform="matrix(1.39039,0,0,1.27069,277.169,-342.565)">
            <path d="M313.089,516.59C315.98,515.68 319.571,514.418 323.534,514.735C326.596,515.02 329.729,514.938 332.876,515.168C333.831,515.238 334.812,515.366 335.741,515.665C336.099,515.783 336.549,516.391 336.583,516.817C336.623,517.192 336.248,517.893 335.964,517.936C331.773,518.571 327.677,520.263 323.232,519.162C319.916,518.358 316.613,519.399 313.349,519.526C312.359,519.571 311.403,519.267 311.145,518.308C310.935,517.529 311.666,517.042 313.089,516.59" style="fill:rgb(35,31,32);fill-rule:nonzero;"/>
        </g>
        <g transform="matrix(1.39039,0,0,1.27069,277.169,-342.565)">
            <path d="M307.935,507.684C314.248,506.243 321.101,504.745 328.25,505.104C329.223,505.157 330.327,505.629 330.245,506.922C330.208,507.504 329.514,508.423 329.038,508.45C325.523,508.646 322.05,508.892 318.609,509.213C315.116,509.561 311.667,509.978 308.267,510.472C307.815,510.54 307.279,510.482 306.904,510.288C306.554,510.106 306.151,509.67 306.166,509.33C306.181,508.979 306.653,508.589 306.958,508.258C307.109,508.094 307.365,508.012 307.935,507.684" style="fill:rgb(35,31,32);fill-rule:nonzero;"/>
        </g>
        <g transform="matrix(1.39039,0,0,1.27069,277.169,-342.565)">
            <path d="M321.263,563.704C321.489,563.37 321.613,562.815 321.89,562.752C322.569,562.599 323.329,562.561 324.021,562.671C327.941,563.319 331.641,564.432 335.299,565.922C337.122,566.666 338.924,567.506 340.71,568.427C342.49,569.348 344.176,570.354 345.891,571.425C346.697,571.932 347.448,572.672 348.001,573.492C348.367,574.032 348.593,574.982 348.417,575.579C348.182,576.381 347.22,576.589 346.573,576.224C342.537,573.947 338.503,571.835 334.483,569.893C330.424,567.952 326.257,566.188 322.18,564.595C321.799,564.449 321.565,564.008 321.263,563.704" style="fill:rgb(35,31,32);fill-rule:nonzero;"/>
        </g>
        <g transform="matrix(1.39039,0,0,1.27069,277.169,-342.565)">
            <path d="M324.849,550.692C327.872,550.603 331.645,550.367 335.351,551.754C338.249,552.854 341.37,553.614 344.275,554.698C345.166,555.025 346.064,555.415 346.863,555.957C347.176,556.168 347.41,556.88 347.344,557.296C347.289,557.667 346.75,558.238 346.463,558.203C342.225,557.681 337.826,558.198 333.916,555.922C330.98,554.243 327.437,554.361 324.246,553.599C323.278,553.374 322.465,552.817 322.496,551.82C322.524,551.01 323.362,550.739 324.849,550.692" style="fill:rgb(35,31,32);fill-rule:nonzero;"/>
        </g>
        <g transform="matrix(1.39039,0,0,1.27069,277.169,-342.565)">
            <path d="M322.253,540.738C325.508,540.891 328.935,541.065 332.322,541.501C335.702,541.939 339.128,542.614 342.525,543.762C343.454,544.075 344.432,544.82 344.003,546.042C343.799,546.594 342.872,547.292 342.41,547.189C335.567,545.648 328.635,544.397 321.888,543.492C321.429,543.435 320.919,543.237 320.6,542.952C320.302,542.685 320.015,542.16 320.113,541.839C320.212,541.508 320.769,541.262 321.157,541.025C321.348,540.907 321.616,540.898 322.253,540.738" style="fill:rgb(35,31,32);fill-rule:nonzero;"/>
        </g>
    </g>
</svg>
